<?xml version="1.0" encoding="UTF-8" standalone="no"?>
<svg width="32px" height="32px" viewBox="0 0 32 32" version="1.1" xmlns="http://www.w3.org/2000/svg" xmlns:xlink="http://www.w3.org/1999/xlink">
    <g class="dribbble" stroke="none" stroke-width="1" fill="none" fill-rule="evenodd">
        <path d="M15.9962529,0 C7.18313817,0 0,7.16814988 0,15.9962529 C0,24.824356 7.16814988,31.9925059 15.9962529,31.9925059 C24.8093677,31.9925059 31.9925059,24.828103 31.9925059,15.9962529 C31.9925059,7.16440281 24.8093677,0 15.9962529,0 L15.9962529,0 Z M26.5779859,7.37423888 C28.4852459,9.69742389 29.6318501,12.6651054 29.6655738,15.8763466 C29.2159251,15.7901639 24.7044496,14.8683841 20.1592506,15.4416862 C20.0543326,15.2168618 19.9681499,14.9733021 19.8632319,14.7297424 C19.5859485,14.0702576 19.2749415,13.3957845 18.9601874,12.7512881 C23.9925059,10.6866511 26.2819672,7.75644028 26.5779859,7.37423888 L26.5779859,7.37423888 Z M15.9962529,2.34192037 C19.4660422,2.34192037 22.6398126,3.64215457 25.0529274,5.77798595 C24.8093677,6.1264637 22.7447307,8.88430913 17.8885246,10.7053864 C15.6515222,6.60983607 13.1859485,3.22997658 12.8074941,2.72412178 C13.8266979,2.48430913 14.9021077,2.34192037 15.9962529,2.34192037 L15.9962529,2.34192037 Z M10.2032787,3.64590164 C10.5667447,4.13302108 12.9948478,7.51288056 15.2693208,11.5372365 C8.86932084,13.2384075 3.24871194,13.2196721 2.64168618,13.2009368 C3.52224824,8.9704918 6.37002342,5.44824356 10.2032787,3.64590164 L10.2032787,3.64590164 Z M2.34192037,16.0149883 L2.34192037,15.5990632 C2.93021077,15.6177986 9.5587822,15.7039813 16.3747073,13.6543326 C16.771897,14.4187354 17.1391101,15.1981265 17.4838407,15.9775176 C17.3114754,16.0299766 17.1203747,16.0824356 16.9442623,16.1348946 C9.89976581,18.4056206 6.15269321,24.618267 5.84168618,25.1391101 C3.67962529,22.711007 2.34192037,19.5185012 2.34192037,16.0149883 L2.34192037,16.0149883 Z M15.9962529,29.6655738 C12.8374707,29.6655738 9.92599532,28.5901639 7.61779859,26.7840749 C7.86135831,26.2819672 10.6379391,20.9386417 18.3381733,18.2482436 C18.371897,18.2295082 18.3906323,18.2295082 18.424356,18.2145199 C20.3503513,23.1943794 21.1297424,27.3723653 21.3395785,28.5714286 C19.6908665,29.2683841 17.8885246,29.6655738 15.9962529,29.6655738 L15.9962529,29.6655738 Z M23.6290398,27.3236534 C23.4903981,26.4918033 22.763466,22.501171 20.9761124,17.5925059 C25.2627635,16.9142857 29.0098361,18.0271663 29.4782201,18.1807963 C28.8674473,21.9803279 26.6978923,25.2590164 23.6290398,27.3236534 L23.6290398,27.3236534 Z" id="dribbble"></path>
    </g>
</svg>
