<?xml version="1.0" encoding="UTF-8" standalone="no"?>
<svg width="24px" height="18px" viewBox="0 0 24 18" version="1.1" xmlns="http://www.w3.org/2000/svg" xmlns:xlink="http://www.w3.org/1999/xlink">
  <g class="icon-link">
    <path d="M23.8665205,0.869236364 C23.7123288,0.409090909 23.3270137,0.0255272727 22.7875068,0.0255272727 L1.21249315,0.0255272727 C0.672986301,0.0255272727 0.287671233,0.409090909 0.133479452,0.869236364 L12,10.5342545 L23.8665205,0.869236364 Z M12.3853151,11.8381091 C12.2311233,11.9146909 12.1541918,11.9916 12,11.9916 C11.8458082,11.9916 11.6916164,11.9146909 11.6146849,11.8381091 L9.84263014,10.4573455 L2.59923288,17.9744727 L21.4776986,17.9744727 L14.2346301,10.4573455 L12.3853151,11.8381091 Z M23.1728219,17.8978909 C23.6353973,17.7444 23.9434521,17.3608364 23.9434521,16.8237818 L23.9434521,2.48007273 L15.1591233,9.61363636 L23.1728219,17.8978909 Z M0.0565479452,2.48007273 L0.0565479452,16.8237818 C0.0565479452,17.2839273 0.36460274,17.7444 0.827178082,17.8978909 L8.84087671,9.61363636 L0.0565479452,2.48007273 Z" id="email"></path>
  </g>
</svg>
