<svg xmlns="http://www.w3.org/2000/svg" width="340" height="255" viewBox="0 0 340 255">
  <path fill="#3BC7C5" fill-rule="evenodd" d="M82.7321806,216.80059 C81.6511121,218.01587 80.5181391,219.217797 79.3350124,220.400924 C62.4283196,237.307617 41.6824774,243.97294 32.997877,235.28834 C24.3132767,226.603739 30.9785995,205.857897 47.8852924,188.951204 C64.7919852,172.044511 85.5378274,165.379188 94.2224278,174.063789 C97.981624,177.822985 98.8647696,183.842045 97.2861823,190.831405 L211.704541,76.4130458 C172.13677,94.8433025 129.653792,102.917695 81.8625804,101.460539 C60.9871699,100.824047 39.1762723,95.5775873 23.8134688,86.3620553 C4.08726603,74.5290944 -4.42003235,56.8191147 2.23357283,34.5678682 C12.3756127,0.650462104 44.0650352,-11.004783 69.4601293,11.8174415 C74.0570864,15.948664 77.5885466,20.5138444 80.1156452,25.435253 C85.8908547,36.6822081 86.076369,48.5526834 82.9758194,59.5716099 C82.2379965,62.193731 81.4820648,64.1576792 80.9319229,65.3240591 C79.7664884,67.7949478 76.8210319,68.8521103 74.3530617,67.6852975 C71.8850915,66.5184847 70.8291778,63.569545 71.9946123,61.0986563 C72.0541491,60.9724298 72.1985402,60.6367262 72.4006724,60.1115766 C72.7585635,59.1817578 73.1213428,58.1005393 73.4624308,56.8883595 C75.9443051,48.06812 75.7974036,38.6683554 71.3255268,29.9595808 C69.3518556,26.1159469 66.5636338,22.5115637 62.8579445,19.1813113 C43.1828957,1.49961352 19.8754779,10.0719902 11.7020607,37.4058518 C6.44529043,54.9857481 12.8036005,68.2220938 28.8932965,77.8736596 C42.6417124,86.120785 62.8458459,90.9807491 82.1634391,91.5697431 C140.208763,93.3395468 189.923959,80.664176 236.264275,51.8533115 L240.644152,47.4734354 C243.364169,43.4327575 246.669607,39.4041893 250.501009,35.5727876 C267.407701,18.6660947 288.153544,12.0007718 296.838144,20.6853722 C305.522744,29.3699726 298.857421,50.1158148 281.950729,67.0225076 C265.044036,83.9292004 244.298194,90.5945233 235.613593,81.9099229 C232.061718,78.358048 231.077411,72.7887004 232.311191,66.2896356 L112.539974,186.060853 C156.315334,162.346404 203.405082,151.898418 257.227355,153.539461 C278.102766,154.175953 299.913663,159.422413 315.276467,168.637945 C335.00267,180.470906 343.509968,198.180885 336.856363,220.432132 C326.714323,254.349538 295.024901,266.004783 269.629806,243.182559 C265.032849,239.051336 261.501389,234.486156 258.974291,229.564747 C253.199081,218.317792 253.013567,206.447317 256.114116,195.42839 C256.851939,192.806269 257.607871,190.842321 258.158013,189.675941 C259.323447,187.205052 262.268904,186.14789 264.736874,187.314702 C267.204844,188.481515 268.260758,191.430455 267.095323,193.901344 C267.035787,194.02757 266.891396,194.363274 266.689263,194.888423 C266.331372,195.818242 265.968593,196.899461 265.627505,198.11164 C263.145631,206.93188 263.292532,216.331645 267.764409,225.040419 C269.73808,228.884053 272.526302,232.488436 276.231991,235.818689 C295.90704,253.500386 319.214458,244.92801 327.387875,217.594148 C332.644645,200.014252 326.286335,186.777906 310.196639,177.12634 C296.448223,168.879215 276.24409,164.019251 256.926497,163.430257 C190.40791,161.402103 134.828968,178.344255 82.7321806,216.80059 Z" transform="translate(.528)" opacity=".15"/>
</svg>
