<?xml version="1.0" encoding="UTF-8" standalone="no"?>
<svg width="32px" height="32px" viewBox="0 0 32 32" version="1.1" xmlns="http://www.w3.org/2000/svg" xmlns:xlink="http://www.w3.org/1999/xlink">
  <g class="icon-link">
    <path d="M25.0876999,0 L6.90957152,0 C3.09904072,0 0,3.09904072 0,6.90957152 L0,25.0904285 C0,28.9009593 3.09904072,32 6.90957152,32 L25.0904285,32 C28.9009593,32 32,28.9009593 32,25.0904285 L32,6.90684289 C31.9972714,3.09904072 28.8982307,0 25.0876999,0 L25.0876999,0 Z M21.6373481,5.11617992 C21.6373481,4.49541676 22.1435088,3.98925602 22.764272,3.98925602 L26.1484545,3.98925602 C26.7692177,3.98925602 27.2753784,4.49541676 27.2753784,5.11617992 L27.2753784,8.5003624 C27.2753784,9.12112556 26.7692177,9.62728629 26.1484545,9.62728629 L22.764272,9.62728629 C22.1435088,9.62728629 21.6373481,9.12112556 21.6373481,8.5003624 L21.6373481,5.11617992 Z M25.0876999,30.300064 L6.90957152,30.300064 C4.03700703,30.300064 1.69720742,27.962993 1.69720742,25.0876999 L1.69720742,11.5536986 L9.1477297,11.5536986 C10.7678533,9.56589213 13.2324877,8.29503304 15.9959071,8.29503304 C18.7593264,8.29503304 21.2266894,9.56589213 22.846813,11.5536986 L30.2973353,11.5536986 L30.2973353,25.0876999 C30.300064,27.962993 27.962993,30.300064 25.0876999,30.300064 L25.0876999,30.300064 Z M23.358431,16.680793 C23.358431,20.7471328 20.0622469,24.0405884 15.9986357,24.0405884 C11.9350245,24.0405884 8.63884033,20.7471328 8.63884033,16.680793 C8.63884033,12.6171818 11.9350245,9.32099766 15.9986357,9.32099766 C20.0622469,9.32099766 23.358431,12.6171818 23.358431,16.680793" id="instagram"></path>
  </g>
</svg>
