<?xml version="1.0" encoding="UTF-8" standalone="no"?>
<svg width="24px" height="23px" viewBox="0 0 24 23" version="1.1" xmlns="http://www.w3.org/2000/svg" xmlns:xlink="http://www.w3.org/1999/xlink">
  <g class="icon-link">
    <path d="M23.9508306,14.0982743 L23.9508306,22.9754369 L18.8173921,22.9754369 L18.8173921,14.6928131 C18.8173921,12.6121505 18.0748956,11.1921796 16.216761,11.1921796 C14.7983109,11.1921796 13.9541903,12.1491359 13.5828306,13.0748301 C13.447406,13.4057621 13.4125476,13.8663762 13.4125476,14.3296141 L13.4125476,22.9754369 L8.27738283,22.9754369 C8.27738283,22.9754369 8.34654292,8.94739078 8.27738283,7.49398058 L13.4120464,7.49398058 L13.4120464,9.68841505 C13.4016334,9.70482767 13.3881021,9.72252427 13.3783016,9.73843447 L13.4120464,9.73843447 L13.4120464,9.68841505 C14.0942367,8.63504854 15.3125568,7.13027913 18.039536,7.13027913 C21.4180789,7.1302233 23.9508306,9.34296845 23.9508306,14.0982743 L23.9508306,14.0982743 Z M2.9057819,0.0311504854 C1.14904872,0.0311504854 0,1.18634223 0,2.70545874 C0,4.19147087 1.1158051,5.38172087 2.83762413,5.38172087 L2.87192575,5.38172087 C4.66268213,5.38172087 5.77637123,4.19169417 5.77637123,2.70545874 C5.74262645,1.18634223 4.66268213,0.0311504854 2.9057819,0.0311504854 L2.9057819,0.0311504854 Z M0.304983759,22.9754369 L5.43819954,22.9754369 L5.43819954,7.49398058 L0.304983759,7.49398058 L0.304983759,22.9754369 L0.304983759,22.9754369 Z" id="linkedin"></path>
  </g>
</svg>
