<svg xmlns="http://www.w3.org/2000/svg" width="56" height="42" viewBox="0 0 56 42">
  <path fill="#3BC7C5" fill-rule="evenodd" d="M13.884017,35.3973179 C13.7095598,35.593111 13.5268539,35.786775 13.3361747,35.9774542 C10.5762194,38.7374095 7.19093727,39.8268992 5.77493552,38.4108974 C4.35893377,36.9948957 5.44842341,33.6096136 8.20837875,30.8496583 C10.9683341,28.0897029 14.3536162,27.0002133 15.7696179,28.416215 C16.3790289,29.025626 16.5243673,29.9997913 16.2721972,31.1318822 L34.9380029,12.4660766 C28.4810895,15.4811296 21.5483001,16.8021147 13.7482881,16.564002 C10.3446062,16.460097 6.78839543,15.6036317 4.28352984,14.0992301 C1.06722323,12.1675428 -0.319869882,9.27645385 0.764983326,5.64401983 C2.41861683,0.107128217 7.58549564,-1.79554762 11.7261004,1.93009646 C12.4756224,2.60450333 13.0514179,3.34975221 13.4634549,4.15315403 C14.4050879,5.98917802 14.4353355,7.9269894 13.9297989,9.72578856 C13.8094988,10.1538402 13.686246,10.4744475 13.5965468,10.6648547 C13.4065257,11.0682182 12.9262766,11.2407961 12.5238804,11.0503182 C12.1214843,10.8598403 11.9493202,10.3784367 12.1393413,9.97507326 C12.1490487,9.95446724 12.1725912,9.89966487 12.2055484,9.81393613 C12.2639016,9.66214664 12.3230518,9.4856417 12.3786654,9.28775782 C12.7833286,7.8478862 12.7593767,6.31340926 12.0302487,4.89173389 C11.7084467,4.2642748 11.2538343,3.67587253 10.6496311,3.13222109 C7.44166507,0.245749059 3.64145056,1.64515798 2.3087959,6.10731019 C1.45169304,8.97716352 2.48839914,11.1379482 5.11178268,12.7135308 C7.35342651,14.0598436 10.6476585,14.8532148 13.7973424,14.9493659 C23.2783135,15.2387937 31.3962438,13.1617053 38.9633916,8.44068785 L39.603984,7.80009539 C40.0539699,7.12507186 40.6042312,6.45131553 41.24435,5.81119672 C44.0043053,3.05124139 47.3895874,1.96175174 48.8055891,3.37775349 C50.2215909,4.79375524 49.1321012,8.17903733 46.3721459,10.9389927 C43.6121906,13.698948 40.2269085,14.7884376 38.8109067,13.3724359 C38.2352176,12.7967467 38.073663,11.8955538 38.2701286,10.8432161 L18.7249943,30.3883505 C25.8695717,26.5074071 33.5551662,24.797485 42.3410635,25.0656941 C45.7447455,25.169599 49.3009562,26.0260643 51.8058218,27.530466 C55.0221284,29.4621532 56.4092215,32.3532422 55.3243683,35.9856762 C53.6707348,41.5225678 48.503856,43.4252437 44.3632513,39.6995996 C43.6137292,39.0251927 43.0379337,38.2799439 42.6258968,37.476542 C41.6842638,35.640518 41.6540161,33.7027067 42.1595528,31.9039075 C42.2798529,31.4758559 42.4031056,31.1552486 42.4928048,30.9648414 C42.6828259,30.5614779 43.163075,30.3889 43.5654712,30.5793779 C43.9678674,30.7698558 44.1400314,31.2512593 43.9500103,31.6546228 C43.940303,31.6752288 43.9167604,31.7300312 43.8838033,31.8157599 C43.8254501,31.9675494 43.7662998,32.1440544 43.7106863,32.3419382 C43.3060231,33.7818099 43.329975,35.3162868 44.059103,36.7379622 C44.380905,37.3654213 44.8355174,37.9538235 45.4397205,38.497475 C48.6476866,41.383947 52.4479011,39.9845381 53.7805558,35.5223859 C54.6376586,32.6525325 53.6009525,30.4917479 50.977569,28.9161653 C48.7359251,27.5698525 45.4416931,26.7764812 42.2920093,26.6803301 C31.4437468,26.3491628 22.3800133,29.1163005 13.884017,35.3973179 Z"/>
</svg>
