<?xml version="1.0" encoding="UTF-8" standalone="no"?>
<svg width="24px" height="19px" viewBox="0 0 24 19" version="1.1" xmlns="http://www.w3.org/2000/svg" xmlns:xlink="http://www.w3.org/1999/xlink">
  <g class="icon-link">
    <path d="M21.5568841,5.35442001 C21.5568841,5.14566379 21.5525581,4.93973817 21.5428245,4.73381255 C22.5046415,4.05800853 23.339562,3.21201512 24,2.24996741 C23.1171328,2.63174361 22.1679334,2.8900352 21.1722294,3.0046742 C22.189203,2.41166502 22.9693274,1.47190823 23.336678,0.350993501 C22.3863971,0.901189966 21.3315709,1.30065737 20.2104125,1.51472094 C19.3106017,0.583102106 18.0308228,0 16.6154955,0 C13.8947938,0 11.6896086,2.14771225 11.6896086,4.79856236 C11.6896086,5.17467737 11.7332292,5.53947001 11.8175864,5.89046351 C7.72409649,5.69161437 4.09493196,3.78167191 1.66587557,0.878899048 C1.24192628,1.58654724 0.999669541,2.41166502 0.999669541,3.29091789 C0.999669541,4.95495261 1.86883768,6.42261495 3.19115571,7.28382279 C2.38255175,7.2590551 1.62369694,7.04322241 0.958932917,6.68409095 L0.958932917,6.74459487 C0.958932917,9.06815769 2.65581158,11.0071137 4.91038544,11.4479785 C4.49653018,11.5587255 4.06140535,11.6167526 3.61222099,11.6167526 C3.29534052,11.6167526 2.98675158,11.5863238 2.68537267,11.5311272 C3.31228407,13.4371776 5.13137261,14.8234604 7.28608766,14.8634425 C5.60038453,16.1503008 3.47703308,16.9170376 1.17018656,16.9170376 C0.774356355,16.9170376 0.382852165,16.8936852 0,16.8494572 C2.10244239,18.165329 4.58665545,18.947634 7.25652657,19 L7.95085168,19 C16.7506834,18.7845211 21.5568841,11.5987076 21.5568841,5.35442001 Z" id="twitter"></path>
  </g>
</svg>
